HIERARCHY
ROOT f_avg_root
{
	OFFSET 0.000000 0.000000 0.000000
	CHANNELS 6 Xposition Yposition Zposition Xrotation Yrotation Zrotation
	JOINT f_avg_Pelvis
	{
		OFFSET -0.087631 90.931465 2.782112
		CHANNELS 6 Xposition Yposition Zposition Xrotation Yrotation Zrotation
		JOINT f_avg_L_Hip
		{
			OFFSET 7.136119 -8.958382 -0.804619
			CHANNELS 6 Xposition Yposition Zposition Xrotation Yrotation Zrotation
			JOINT f_avg_L_Knee
			{
				OFFSET 3.066892 -36.420944 -0.668891
				CHANNELS 6 Xposition Yposition Zposition Xrotation Yrotation Zrotation
				JOINT f_avg_L_Ankle
				{
					OFFSET -1.155390 -38.334850 -4.350160
					CHANNELS 6 Xposition Yposition Zposition Xrotation Yrotation Zrotation
					JOINT f_avg_L_Foot
					{
						OFFSET 2.333768 -5.464478 11.437012
						CHANNELS 6 Xposition Yposition Zposition Xrotation Yrotation Zrotation
						End Site
						{
							OFFSET 0.000000 12.888453 0.000000
						}
					}
				}
			}
		}
		JOINT f_avg_R_Hip
		{
			OFFSET -6.901202 -8.896049 -0.479568
			CHANNELS 6 Xposition Yposition Zposition Xrotation Yrotation Zrotation
			JOINT f_avg_R_Knee
			{
				OFFSET -3.615239 -37.065048 -0.918532
				CHANNELS 6 Xposition Yposition Zposition Xrotation Yrotation Zrotation
				JOINT f_avg_R_Ankle
				{
					OFFSET 1.402864 -38.363777 -4.189160
					CHANNELS 6 Xposition Yposition Zposition Xrotation Yrotation Zrotation
					JOINT f_avg_R_Foot
					{
						OFFSET -2.204322 -4.640959 11.789971
						CHANNELS 6 Xposition Yposition Zposition Xrotation Yrotation Zrotation
						End Site
						{
							OFFSET 0.000000 12.860830 0.000000
						}
					}
				}
			}
		}
		JOINT f_avg_Spine1
		{
			OFFSET -0.250821 10.325684 -2.218514
			CHANNELS 6 Xposition Yposition Zposition Xrotation Yrotation Zrotation
			JOINT f_avg_Spine2
			{
				OFFSET 0.358096 12.765762 -0.171301
				CHANNELS 6 Xposition Yposition Zposition Xrotation Yrotation Zrotation
				JOINT f_avg_Spine3
				{
					OFFSET 0.202718 4.907227 2.786721
					CHANNELS 6 Xposition Yposition Zposition Xrotation Yrotation Zrotation
					JOINT f_avg_Neck
					{
						OFFSET -0.196263 20.824318 -4.976548
						CHANNELS 6 Xposition Yposition Zposition Xrotation Yrotation Zrotation
						JOINT f_avg_Head
						{
							OFFSET 0.351716 6.232193 5.020525
							CHANNELS 6 Xposition Yposition Zposition Xrotation Yrotation Zrotation
							End Site
							{
								OFFSET 0.000000 8.010590 0.000000
							}
						}
					}
					JOINT f_avg_L_Collar
					{
						OFFSET 7.529828 11.778038 -3.687482
						CHANNELS 6 Xposition Yposition Zposition Xrotation Yrotation Zrotation
						JOINT f_avg_L_Shoulder
						{
							OFFSET 8.531712 3.173889 -0.729283
							CHANNELS 6 Xposition Yposition Zposition Xrotation Yrotation Zrotation
							JOINT f_avg_L_Elbow
							{
								OFFSET 25.124733 -1.196655 -2.751844
								CHANNELS 6 Xposition Yposition Zposition Xrotation Yrotation Zrotation
								JOINT f_avg_L_Wrist
								{
									OFFSET 23.801907 0.900681 0.004375
									CHANNELS 6 Xposition Yposition Zposition Xrotation Yrotation Zrotation
									JOINT f_avg_L_Hand
									{
										OFFSET 7.966774 -0.968246 -1.320559
										CHANNELS 6 Xposition Yposition Zposition Xrotation Yrotation Zrotation
										End Site
										{
											OFFSET 0.000000 8.133316 0.000000
										}
									}
								}
							}
						}
					}
					JOINT f_avg_R_Collar
					{
						OFFSET -7.703282 11.560616 -4.181066
						CHANNELS 6 Xposition Yposition Zposition Xrotation Yrotation Zrotation
						JOINT f_avg_R_Shoulder
						{
							OFFSET -8.920284 3.278503 -0.980219
							CHANNELS 6 Xposition Yposition Zposition Xrotation Yrotation Zrotation
							JOINT f_avg_R_Elbow
							{
								OFFSET -24.598970 -1.315262 -2.016171
								CHANNELS 6 Xposition Yposition Zposition Xrotation Yrotation Zrotation
								JOINT f_avg_R_Wrist
								{
									OFFSET -24.517677 0.862183 -0.353151
									CHANNELS 6 Xposition Yposition Zposition Xrotation Yrotation Zrotation
									JOINT f_avg_R_Hand
									{
										OFFSET -8.040016 -0.724777 -1.041933
										CHANNELS 6 Xposition Yposition Zposition Xrotation Yrotation Zrotation
										End Site
										{
											OFFSET 0.000000 8.139587 0.000000
										}
									}
								}
							}
						}
					}
				}
			}
		}
	}
}
MOTION
Frames: 4
Frame Time: 0.041667
0.000000 0.000000 0.000000 -0.000003 -0.000003 -90.000207 4.833986 320.751770 -82.727058 135.359309 -3.798705 88.231093 7.136163 -8.958387 -0.804626 -9.521505 -1.744547 4.313565 3.066871 -36.420952 -0.668894 58.964422 -7.523791 -1.546284 -1.155384 -38.334858 -4.350147 0.462464 12.929236 -11.375126 2.333700 -5.464495 11.437009 -13.403282 -4.375794 13.678419 -6.901187 -8.896050 -0.479582 -7.503642 -1.597375 -1.369958 -3.615267 -37.065063 -0.918518 13.753928 3.405393 4.492560 1.402875 -38.363766 -4.189158 2.839255 -14.843729 10.204800 -2.204386 -4.640953 11.789963 -6.534483 4.287310 -19.018908 -0.250769 10.325685 -2.218518 8.732507 -0.163056 2.046433 0.358096 12.765759 -0.171298 -2.542243 -0.404946 0.536210 0.202755 4.907219 2.786707 3.440221 1.056676 1.259105 -0.196291 20.824329 -4.976563 -0.142487 -2.071534 -0.391011 0.351708 6.232217 5.020554 1.664540 0.782363 -1.005489 7.529798 11.778051 -3.687501 -8.095057 -12.824023 10.605223 8.531721 3.173887 -0.729274 -6.474785 -13.502907 -12.514291 25.124792 -1.196661 -2.751828 63.896802 -72.910371 70.882139 23.801908 0.900690 0.004405 -3.785471 -11.286591 3.742663 7.966772 -0.968261 -1.320545 0.000001 0.000001 0.000001 -7.703277 11.560635 -4.181071 -9.121518 17.035853 -13.176426 -8.920258 3.278469 -0.980165 -16.669403 22.624681 0.007455 -24.598969 -1.315262 -2.016160 -131.468260 106.153345 118.228949 -24.517714 0.862163 -0.353149 -0.200871 9.712688 -7.288323 -8.040051 -0.724809 -1.041911 0.000001 0.000000 -0.000001 
0.000000 0.000000 0.000000 -0.000003 -0.000003 -90.000207 8.398440 318.754883 -84.777840 130.858652 -6.354725 88.377956 7.136136 -8.958383 -0.804614 -11.532667 -4.766509 2.925738 3.066833 -36.420944 -0.668886 70.561899 -8.480755 -0.252778 -1.155345 -38.334858 -4.350182 -0.244631 12.369934 -10.877803 2.333721 -5.464463 11.437032 -14.634164 -4.309841 14.460631 -6.901190 -8.896049 -0.479538 -3.086240 -3.646234 -1.120866 -3.615268 -37.065048 -0.918516 17.077249 0.946401 5.082903 1.402871 -38.363773 -4.189144 1.161863 -13.989652 7.446028 -2.204337 -4.640952 11.789968 -8.871612 2.866662 -15.941757 -0.250798 10.325682 -2.218518 7.455079 2.381217 2.144234 0.358046 12.765759 -0.171306 -0.857424 2.086341 -0.041823 0.202757 4.907227 2.786740 2.727628 4.285713 1.066703 -0.196227 20.824318 -4.976547 -0.004710 -2.023075 0.389005 0.351691 6.232222 5.020529 2.765115 -0.886767 -1.288526 7.529868 11.778040 -3.687480 -9.197238 -18.522860 11.500014 8.531726 3.173892 -0.729294 -5.459820 -15.206889 -13.621049 25.124769 -1.196676 -2.751841 69.821418 -71.743091 74.357578 23.801899 0.900674 0.004380 -3.623255 -11.202076 4.101494 7.966772 -0.968261 -1.320570 -0.000000 0.000001 0.000001 -7.703226 11.560613 -4.181028 -8.187870 30.550531 -13.864543 -8.920268 3.278484 -0.980206 -20.553935 37.601844 11.669600 -24.598953 -1.315255 -2.016177 -113.035662 108.494597 108.634275 -24.517693 0.862175 -0.353126 0.325396 9.889517 -7.362246 -8.040005 -0.724791 -1.041938 -0.000000 0.000000 -0.000002 
0.000000 0.000000 0.000000 -0.000003 -0.000003 -90.000207 12.548826 322.773865 -84.045418 122.154559 -6.851747 87.137989 7.136117 -8.958383 -0.804644 -12.720296 -3.514166 4.515258 3.066857 -36.420948 -0.668895 65.107638 -8.412126 -1.232883 -1.155382 -38.334843 -4.350178 -0.291005 12.087094 -11.657862 2.333698 -5.464472 11.437007 -14.306624 -3.206174 17.024325 -6.901222 -8.896051 -0.479579 -4.507241 -4.103830 -3.602420 -3.615266 -37.065048 -0.918565 21.343714 1.957316 5.221815 1.402835 -38.363785 -4.189179 1.067839 -13.680732 9.439887 -2.204355 -4.640947 11.789975 -10.762946 2.968834 -17.780442 -0.250817 10.325689 -2.218519 8.246956 2.372341 1.733156 0.358051 12.765755 -0.171312 0.039610 1.068547 0.545625 0.202735 4.907228 2.786720 3.096438 3.833815 1.036209 -0.196272 20.824324 -4.976565 2.163151 -0.594575 1.367383 0.351670 6.232219 5.020508 1.878505 -1.081558 -1.436343 7.529829 11.778037 -3.687503 -8.898259 -20.132034 13.684026 8.531676 3.173895 -0.729304 -5.354545 -14.466033 -8.293639 25.124733 -1.196670 -2.751856 97.012647 -69.323428 100.353579 23.801907 0.900699 0.004369 -2.351966 -12.503792 6.403614 7.966765 -0.968278 -1.320551 -0.000001 0.000000 0.000001 -7.703246 11.560612 -4.181032 -8.556086 30.881485 -16.247389 -8.920238 3.278475 -0.980175 -21.311987 40.283677 10.912621 -24.598921 -1.315262 -2.016150 -55.427600 121.496389 46.593611 -24.517683 0.862164 -0.353118 0.005626 13.073686 -11.528114 -8.040025 -0.724808 -1.041941 0.000001 0.000000 0.000000 
0.000000 0.000000 0.000000 -0.000003 -0.000003 -90.000207 16.357426 312.433289 -78.527840 130.623680 -6.454733 87.586910 7.136144 -8.958385 -0.804645 -9.212006 -4.045373 3.954855 3.066862 -36.420959 -0.668899 45.853802 -9.309992 -0.232419 -1.155386 -38.334881 -4.350185 2.469549 11.349985 -13.327361 2.333712 -5.464505 11.437011 -12.706747 -2.436436 18.567258 -6.901182 -8.896046 -0.479578 -6.013364 -5.239308 -5.287760 -3.615245 -37.065056 -0.918536 20.754254 0.747607 4.456180 1.402873 -38.363773 -4.189131 1.919229 -12.844572 11.166843 -2.204373 -4.640950 11.789979 -10.097394 2.877952 -17.504638 -0.250780 10.325690 -2.218536 7.927342 2.598990 2.447320 0.358051 12.765759 -0.171298 0.325300 3.520250 0.157478 0.202714 4.907225 2.786737 3.591678 5.274126 0.964363 -0.196244 20.824312 -4.976579 2.059686 0.193529 1.122696 0.351679 6.232220 5.020527 1.040451 -1.355658 -1.778316 7.529851 11.778036 -3.687490 -9.224224 -15.312982 13.339144 8.531709 3.173887 -0.729258 -6.638916 -11.970901 -11.715963 25.124720 -1.196674 -2.751856 106.426423 -67.735792 116.869181 23.801907 0.900694 0.004397 -3.683268 -12.418839 8.119281 7.966758 -0.968246 -1.320552 0.000000 0.000000 0.000000 -7.703225 11.560613 -4.181049 -7.257987 28.890280 -15.430451 -8.920234 3.278473 -0.980222 -19.921736 39.425792 15.161034 -24.598938 -1.315249 -2.016166 -63.548661 117.131870 56.797241 -24.517654 0.862194 -0.353158 -0.229105 12.233356 -10.668201 -8.040031 -0.724792 -1.041911 0.000002 0.000001 -0.000000 
